# xmcd
#
# Track frame offsets: 
#        150
#        12874
#        23869
#        35658
#        47654
#        59120
#        70724
#        79012
#        91305
#        102072
#        116716
#        129473
#        140875
#        152117
#        163808
#        176938
#        190017
#        202893
#        214471
#        222848
#        234872
#        244241
#        256979
#
# Disc length: 3582 seconds
#
# Revision: 0
# Processed by: cddbd v1.5.2PL0 Copyright (c) Steve Scherf et al.
# Submitted via: ExactAudioCopy v0.99pb5
#
DISCID=4e0dfc17
DTITLE=Conway Twitty - Conway Twitty Country and Here's Conway Twitty and 
DTITLE=His Lonely Blue Boys
DYEAR=2010
DGENRE=Country
TTITLE0=Working Girl
TTITLE1=But I Dropped It
TTITLE2=Things Have Gone To Pieces
TTITLE3=Walk Me To The Door
TTITLE4=Two Of The Usual
TTITLE5=Life Turned Her That Way
TTITLE6=Go Woman Go
TTITLE7=Don't Put Your Hurt In My Heart
TTITLE8=Walk Through This World With Me
TTITLE9=I Threw Away The Rose
TTITLE10=A Wound Time Can't Erase
TTITLE11=Funny (But I'm Not Laughing)
TTITLE12=Dim Lights, Thick Smoke (And Loud, Loud Music)
TTITLE13=Skip A Rope
TTITLE14=Sing Me Back Home
TTITLE15=The Image Of Me
TTITLE16=I Don't Mind
TTITLE17=Tender Years
TTITLE18=Jambalaya (On The Bayou)
TTITLE19=By The Time I Get To Phoenix
TTITLE20=You Sure Know How To Hurt A Friend
TTITLE21=Sensitive Heart
TTITLE22=Take Me As I Am (Or Let Me Go)
EXTD=
EXTT0=
EXTT1=
EXTT2=
EXTT3=
EXTT4=
EXTT5=
EXTT6=
EXTT7=
EXTT8=
EXTT9=
EXTT10=
EXTT11=
EXTT12=
EXTT13=
EXTT14=
EXTT15=
EXTT16=
EXTT17=
EXTT18=
EXTT19=
EXTT20=
EXTT21=
EXTT22=
PLAYORDER=
